<?xml version="1.0" encoding="utf-8"?>
<!-- Generator: Adobe Illustrator 26.2.1, SVG Export Plug-In . SVG Version: 6.00 Build 0)  -->
<svg version="1.1" xmlns="http://www.w3.org/2000/svg" xmlns:xlink="http://www.w3.org/1999/xlink" x="0px" y="0px"
	 viewBox="0 0 1190.55 244.37" style="enable-background:new 0 0 1190.55 244.37;" xml:space="preserve">
<style type="text/css">
	.st0{display:none;}
	.st1{display:inline;}
	.st2{fill:#FFFFFF;}
	.st3{fill:url(#SVGID_1_);}
	.st4{fill:url(#SVGID_00000049202200377457060980000016226583835044361648_);}
	.st5{fill:url(#SVGID_00000178923766636007563680000000922244909146813346_);}
	.st6{fill:url(#SVGID_00000169553353085216162770000004104096478605792162_);}
	.st7{fill:url(#SVGID_00000034091644197630813890000007967827176674709398_);}
	.st8{fill:url(#SVGID_00000025414540590878588080000007031578141399954820_);}
	.st9{fill:none;}
	.st10{font-family:'LEMONMILK-Medium';}
	.st11{font-size:34.7941px;}
	.st12{fill:url(#SVGID_00000059295038126489652240000005841104749083369393_);}
	.st13{fill:url(#SVGID_00000072985191032997940360000012833553913253176978_);}
	.st14{fill:url(#SVGID_00000155146812343774027140000006591912468805928870_);}
	.st15{fill:url(#SVGID_00000088851864590040777180000015902759363012137871_);}
	.st16{fill:url(#SVGID_00000063606929281981407000000009116064089076151434_);}
	.st17{fill:url(#SVGID_00000144308576899108230500000003017554062075597195_);}
</style>
<g id="Calque_1" class="st0">
	<g class="st1">
		<g>
			<path d="M475.15,137.4l9.81-17.77c2.64,2.21,4.41,3.07,8,3.07h0.32c6.72,0,12.04-5.84,12.04-12.33l-0.36-49.83l19.49,0.05
				l0.32,49.89c0,18.37-13.9,32.52-31.4,32.52h-0.55C485.92,142.99,480.47,141.23,475.15,137.4z"/>
			<path d="M536.22,112.18V60.53h19.58v51.6c0,6.75,5.23,11.23,10.77,11.23c5.5,0,10.86-4.58,10.86-11.23v-51.6h19.58v51.65
				c0,18.63-13.63,31.76-30.4,31.76C549.85,143.94,536.22,130.81,536.22,112.18z"/>
			<path d="M672.39,60.43v82.05h-6.18l-37.67-40.42v39.67H609.1v-82h6.27L652.9,100V60.43H672.39z"/>
			<path d="M685.11,60.53h19.45v81.15h-19.45V60.53z"/>
			<path d="M714.1,101.21c0-24.36,17.45-42.84,40.21-42.84c22.76,0,40.21,18.47,40.21,42.84c0,24.16-17.45,42.54-40.26,42.54
				C731.5,143.74,714.1,125.37,714.1,101.21z M774.85,101.06c0-12.53-8.91-22.2-20.54-22.2s-20.54,9.66-20.54,22.2
				c0,12.48,8.91,22.1,20.54,22.1S774.85,113.54,774.85,101.06z"/>
			<path d="M843.18,141.68l-19.58-35.24v35.24h-19.45l-0.09-81.15h27.81c15.81,0,27.13,11.83,27.13,26.38
				c0,10.12-5.5,18.57-12.68,22.2l19.63,32.57H843.18z M823.51,96.17l7.95,0.05c4.13,0.05,7.91-3.17,7.91-8.15
				c0-5.03-3.82-8.15-7.91-8.15h-7.95V96.17z"/>
		</g>
		<path d="M502.06,172.66v11.62h26.44v18.44h-26.44v11.93h32.12v20.71h-53.97v-83.25h53.97v20.55H502.06z"/>
		<path d="M618.42,152.01v84.18h-7.02l-42.81-41.47v40.7h-22.1v-84.13h7.13l42.66,41.32v-40.59H618.42z"/>
		<path d="M689.89,172.77h-19.93v62.59H647.8v-62.59h-19.99v-20.66h62.08V172.77z"/>
		<path d="M743.76,235.36l-22.26-36.15v36.15h-22.1l-0.1-83.25h31.61c17.97,0,30.83,12.14,30.83,27.06
			c0,10.38-6.25,19.06-14.41,22.78l22.31,33.41H743.76z M721.39,188.67l9.04,0.05c4.7,0.05,8.99-3.25,8.99-8.37
			c0-5.16-4.34-8.37-8.99-8.37h-9.04V188.67z"/>
		<path d="M799.43,172.66v11.62h26.44v18.44h-26.44v11.93h32.12v20.71h-53.97v-83.25h53.97v20.55H799.43z"/>
		<path d="M843.84,152.11h31.45c17.15,0,31.45,12.91,31.45,29.18c0,16.06-13.99,29.54-31.45,29.54h-9.35v24.53h-22.1V152.11z
			 M885.42,181.39c0-5.06-4.23-8.88-10.12-8.88h-9.35v17.92l9.35,0.05C881.23,190.53,885.42,186.5,885.42,181.39z"/>
		<path d="M960.61,235.36l-22.26-36.15v36.15h-22.1l-0.1-83.25h31.61c17.97,0,30.83,12.14,30.83,27.06
			c0,10.38-6.25,19.06-14.41,22.78l22.31,33.41H960.61z M938.25,188.67l9.04,0.05c4.7,0.05,8.99-3.25,8.99-8.37
			c0-5.16-4.34-8.37-8.99-8.37h-9.04V188.67z"/>
		<path d="M994.44,152.11h22.1v83.25h-22.1V152.11z"/>
		<path d="M1026.67,221.26l13.38-13.12c3.46,5.11,9.92,8.21,16.89,8.21c4.7,0,9.3-1.7,9.3-5.11c0-4.29-8.52-8.06-16.68-11.67
			c-10.54-4.54-19.57-11.47-19.57-24.02c0-14.41,13.69-24.69,29.49-24.69c12.7,0,22.62,5.99,25.87,14.2l-12.76,12.29
			c-2.48-4.39-8.88-6.3-12.86-6.3c-4.54,0-7.8,2.32-7.8,5.16c0,3.82,5.89,5.06,14.87,8.83c13.01,5.47,21.64,13.43,21.64,25.72
			c0,15.86-14.77,25.72-31.45,25.72C1043.29,236.5,1030.85,230.45,1026.67,221.26z"/>
		<path d="M1120.4,172.66v11.62h26.44v18.44h-26.44v11.93h32.12v20.71h-53.97v-83.25h53.97v20.55H1120.4z"/>
		<path class="st2" d="M412.4,129c-0.7-0.35-1.42-0.7-2.13-1.03c7.17-10.41,11.05-23.19,11.05-36.73
			c0-32.67-23.04-59.24-51.35-59.24c-28.32,0-51.35,26.58-51.35,59.24c0,13.55,3.88,26.33,11.05,36.73
			c-1.11,0.51-1.85,0.88-2.18,1.05c-30.1,13.82-49.53,44.01-49.53,76.95v20.53c0,8.84,7.19,16.03,16.03,16.03h151.98
			c8.84,0,16.03-7.19,16.03-16.03v-20.53C461.98,173.01,442.53,142.81,412.4,129z"/>
		<g>
			<radialGradient id="SVGID_1_" cx="324.955" cy="147.1793" r="105.5188" gradientUnits="userSpaceOnUse">
				<stop  offset="0" style="stop-color:#E92F25"/>
				<stop  offset="0.0897" style="stop-color:#DE2C25"/>
				<stop  offset="0.715" style="stop-color:#9C2327"/>
				<stop  offset="1" style="stop-color:#832127"/>
			</radialGradient>
			<path class="st3" d="M410,134c-0.28,0.34-0.54,0.68-0.83,1.02c-10.38,12.17-24.31,18.87-39.21,18.87
				c-14.9,0-28.83-6.7-39.21-18.87c-0.28-0.33-0.55-0.68-0.83-1.02c-27.32,12.48-46.43,40.1-46.43,71.97v20.53
				c0,5.79,4.69,10.48,10.48,10.48h151.98c5.79,0,10.48-4.69,10.48-10.48v-20.53C456.43,174.11,437.33,146.49,410,134z"/>
			
				<radialGradient id="SVGID_00000054257525440162608980000008316653191847039408_" cx="345.3304" cy="59.8029" r="63.6529" gradientUnits="userSpaceOnUse">
				<stop  offset="0" style="stop-color:#E92F25"/>
				<stop  offset="0.0897" style="stop-color:#DE2C25"/>
				<stop  offset="0.715" style="stop-color:#9C2327"/>
				<stop  offset="1" style="stop-color:#832127"/>
			</radialGradient>
			<path style="fill:url(#SVGID_00000054257525440162608980000008316653191847039408_);" d="M369.96,144.92
				c12.03,0,22.98-5.45,31.15-14.34c9.01-9.8,14.65-23.8,14.65-39.35c0-29.65-20.51-53.69-45.8-53.69c-25.3,0-45.8,24.04-45.8,53.69
				c0,15.55,5.64,29.54,14.65,39.35C346.99,139.47,357.93,144.92,369.96,144.92z"/>
		</g>
		<path class="st2" d="M155.08,129c-0.7-0.35-1.42-0.7-2.14-1.03c7.17-10.41,11.05-23.19,11.05-36.73
			c0-32.67-23.04-59.24-51.35-59.24c-28.32,0-51.35,26.58-51.35,59.24c0,13.55,3.88,26.33,11.05,36.73
			c-1.11,0.51-1.85,0.88-2.18,1.05c-30.1,13.82-49.53,44.01-49.53,76.95v20.53c0,8.84,7.19,16.03,16.03,16.03h151.98
			c8.84,0,16.03-7.19,16.03-16.03v-20.53C204.66,173.01,185.2,142.81,155.08,129z"/>
		<g>
			
				<radialGradient id="SVGID_00000029765321547866524580000013826290240042510746_" cx="153.3904" cy="143.9405" r="86.7663" gradientUnits="userSpaceOnUse">
				<stop  offset="0" style="stop-color:#FFED00"/>
				<stop  offset="1" style="stop-color:#F48E00"/>
			</radialGradient>
			<path style="fill:url(#SVGID_00000029765321547866524580000013826290240042510746_);" d="M152.68,134
				c-0.28,0.34-0.54,0.68-0.83,1.02c-10.38,12.17-24.31,18.87-39.21,18.87c-14.9,0-28.83-6.7-39.21-18.87
				c-0.28-0.33-0.55-0.68-0.83-1.02c-27.32,12.48-46.43,40.1-46.43,71.97v20.53c0,5.79,4.69,10.48,10.48,10.48h151.98
				c5.79,0,10.48-4.69,10.48-10.48v-20.53C199.11,174.11,180,146.49,152.68,134z"/>
			
				<radialGradient id="SVGID_00000016066295481632948800000010299704423597358210_" cx="137.8441" cy="51.7731" r="57.1808" gradientUnits="userSpaceOnUse">
				<stop  offset="0" style="stop-color:#FFED00"/>
				<stop  offset="1" style="stop-color:#F48E00"/>
			</radialGradient>
			<path style="fill:url(#SVGID_00000016066295481632948800000010299704423597358210_);" d="M112.64,144.92
				c12.03,0,22.98-5.45,31.15-14.34c9.01-9.8,14.65-23.8,14.65-39.35c0-29.65-20.51-53.69-45.8-53.69c-25.3,0-45.8,24.04-45.8,53.69
				c0,15.55,5.64,29.54,14.65,39.35C89.66,139.47,100.61,144.92,112.64,144.92z"/>
		</g>
		<path class="st2" d="M294.12,113.43c-0.82-0.41-1.66-0.82-2.5-1.21c8.38-12.17,12.92-27.11,12.92-42.95
			C304.55,31.07,277.61,0,244.5,0s-60.05,31.07-60.05,69.27c0,15.84,4.54,30.78,12.92,42.95c-1.3,0.6-2.17,1.03-2.55,1.23
			c-35.19,16.16-57.92,51.46-57.92,89.98v24.01c0,10.33,8.41,18.74,18.74,18.74h177.71c10.33,0,18.74-8.41,18.74-18.74v-24.01
			C352.1,164.89,329.35,129.57,294.12,113.43z"/>
		<g>
			
				<radialGradient id="SVGID_00000065068522544779066690000001101390768853615785_" cx="245.8354" cy="148.3823" r="92.1942" gradientUnits="userSpaceOnUse">
				<stop  offset="0" style="stop-color:#00A1E5"/>
				<stop  offset="1" style="stop-color:#2B2483"/>
			</radialGradient>
			<path style="fill:url(#SVGID_00000065068522544779066690000001101390768853615785_);" d="M291.32,119.28
				c-0.32,0.4-0.63,0.8-0.97,1.19c-12.14,14.23-28.43,22.07-45.85,22.07c-17.43,0-33.71-7.84-45.85-22.07
				c-0.33-0.39-0.64-0.79-0.97-1.19c-31.95,14.6-54.29,46.89-54.29,84.15v24.01c0,6.77,5.49,12.25,12.25,12.25h177.71
				c6.77,0,12.25-5.49,12.25-12.25v-24.01C345.61,166.17,323.26,133.88,291.32,119.28z"/>
			
				<radialGradient id="SVGID_00000045596012106665689800000014154328380953957519_" cx="245.0026" cy="13.4626" r="90.2258" gradientUnits="userSpaceOnUse">
				<stop  offset="0" style="stop-color:#34A6DC"/>
				<stop  offset="0.567" style="stop-color:#225FA6"/>
				<stop  offset="1" style="stop-color:#272C82"/>
			</radialGradient>
			<path style="fill:url(#SVGID_00000045596012106665689800000014154328380953957519_);" d="M244.5,132.05
				c14.07,0,26.87-6.37,36.43-16.77c10.53-11.46,17.13-27.83,17.13-46.01c0-34.67-23.98-62.78-53.56-62.78
				c-29.58,0-53.56,28.11-53.56,62.78c0,18.18,6.6,34.54,17.13,46.01C217.63,125.68,230.43,132.05,244.5,132.05z"/>
		</g>
		<rect x="875.29" y="113.53" class="st9" width="328.33" height="47.46"/>
		<text transform="matrix(1 0 0 1 875.2941 140.9192)" class="st10 st11">Médiamatique</text>
	</g>
</g>
<g id="Calque_2">
	<g>
		<g>
			<path class="st2" d="M475.15,137.4l9.81-17.77c2.64,2.21,4.41,3.07,8,3.07h0.32c6.72,0,12.04-5.84,12.04-12.33l-0.36-49.83
				l19.49,0.05l0.32,49.89c0,18.37-13.9,32.52-31.4,32.52h-0.55C485.92,142.99,480.47,141.23,475.15,137.4z"/>
			<path class="st2" d="M536.22,112.18V60.53h19.58v51.6c0,6.75,5.23,11.23,10.77,11.23c5.5,0,10.86-4.58,10.86-11.23v-51.6h19.58
				v51.65c0,18.63-13.63,31.76-30.4,31.76C549.85,143.94,536.22,130.81,536.22,112.18z"/>
			<path class="st2" d="M672.39,60.43v82.05h-6.18l-37.67-40.42v39.67H609.1v-82h6.27L652.9,100V60.43H672.39z"/>
			<path class="st2" d="M685.11,60.53h19.45v81.15h-19.45V60.53z"/>
			<path class="st2" d="M714.1,101.21c0-24.36,17.45-42.84,40.21-42.84c22.76,0,40.21,18.47,40.21,42.84
				c0,24.16-17.45,42.54-40.26,42.54C731.5,143.74,714.1,125.37,714.1,101.21z M774.85,101.06c0-12.53-8.91-22.2-20.54-22.2
				s-20.54,9.66-20.54,22.2c0,12.48,8.91,22.1,20.54,22.1S774.85,113.54,774.85,101.06z"/>
			<path class="st2" d="M843.18,141.68l-19.58-35.24v35.24h-19.45l-0.09-81.15h27.81c15.81,0,27.13,11.83,27.13,26.38
				c0,10.12-5.5,18.57-12.68,22.2l19.63,32.57H843.18z M823.51,96.17l7.95,0.05c4.13,0.05,7.91-3.17,7.91-8.15
				c0-5.03-3.82-8.15-7.91-8.15h-7.95V96.17z"/>
		</g>
		<path class="st2" d="M502.06,172.66v11.62h26.44v18.44h-26.44v11.93h32.12v20.71h-53.97v-83.25h53.97v20.55H502.06z"/>
		<path class="st2" d="M618.42,152.01v84.18h-7.02l-42.81-41.47v40.7h-22.1v-84.13h7.13l42.66,41.32v-40.59H618.42z"/>
		<path class="st2" d="M689.89,172.77h-19.93v62.59H647.8v-62.59h-19.99v-20.66h62.08V172.77z"/>
		<path class="st2" d="M743.76,235.36l-22.26-36.15v36.15h-22.1l-0.1-83.25h31.61c17.97,0,30.83,12.14,30.83,27.06
			c0,10.38-6.25,19.06-14.41,22.78l22.31,33.41H743.76z M721.39,188.67l9.04,0.05c4.7,0.05,8.99-3.25,8.99-8.37
			c0-5.16-4.34-8.37-8.99-8.37h-9.04V188.67z"/>
		<path class="st2" d="M799.43,172.66v11.62h26.44v18.44h-26.44v11.93h32.12v20.71h-53.97v-83.25h53.97v20.55H799.43z"/>
		<path class="st2" d="M843.84,152.11h31.45c17.15,0,31.45,12.91,31.45,29.18c0,16.06-13.99,29.54-31.45,29.54h-9.35v24.53h-22.1
			V152.11z M885.42,181.39c0-5.06-4.23-8.88-10.12-8.88h-9.35v17.92l9.35,0.05C881.23,190.53,885.42,186.5,885.42,181.39z"/>
		<path class="st2" d="M960.61,235.36l-22.26-36.15v36.15h-22.1l-0.1-83.25h31.61c17.97,0,30.83,12.14,30.83,27.06
			c0,10.38-6.25,19.06-14.41,22.78l22.31,33.41H960.61z M938.25,188.67l9.04,0.05c4.7,0.05,8.99-3.25,8.99-8.37
			c0-5.16-4.34-8.37-8.99-8.37h-9.04V188.67z"/>
		<path class="st2" d="M994.44,152.11h22.1v83.25h-22.1V152.11z"/>
		<path class="st2" d="M1026.67,221.26l13.38-13.12c3.46,5.11,9.92,8.21,16.89,8.21c4.7,0,9.3-1.7,9.3-5.11
			c0-4.29-8.52-8.06-16.68-11.67c-10.54-4.54-19.57-11.47-19.57-24.02c0-14.41,13.69-24.69,29.49-24.69
			c12.7,0,22.62,5.99,25.87,14.2l-12.76,12.29c-2.48-4.39-8.88-6.3-12.86-6.3c-4.54,0-7.8,2.32-7.8,5.16
			c0,3.82,5.89,5.06,14.87,8.83c13.01,5.47,21.64,13.43,21.64,25.72c0,15.86-14.77,25.72-31.45,25.72
			C1043.29,236.5,1030.85,230.45,1026.67,221.26z"/>
		<path class="st2" d="M1120.4,172.66v11.62h26.44v18.44h-26.44v11.93h32.12v20.71h-53.97v-83.25h53.97v20.55H1120.4z"/>
		<path class="st2" d="M412.4,129c-0.7-0.35-1.42-0.7-2.13-1.03c7.17-10.41,11.05-23.19,11.05-36.73
			c0-32.67-23.04-59.24-51.35-59.24c-28.32,0-51.35,26.58-51.35,59.24c0,13.55,3.88,26.33,11.05,36.73
			c-1.11,0.51-1.85,0.88-2.18,1.05c-30.1,13.82-49.53,44.01-49.53,76.95v20.53c0,8.84,7.19,16.03,16.03,16.03h151.98
			c8.84,0,16.03-7.19,16.03-16.03v-20.53C461.98,173.01,442.53,142.81,412.4,129z"/>
		<g>
			
				<radialGradient id="SVGID_00000173128583383489738590000010572563977968633750_" cx="324.955" cy="147.1793" r="105.5188" gradientUnits="userSpaceOnUse">
				<stop  offset="0" style="stop-color:#E92F25"/>
				<stop  offset="0.0897" style="stop-color:#DE2C25"/>
				<stop  offset="0.715" style="stop-color:#9C2327"/>
				<stop  offset="1" style="stop-color:#832127"/>
			</radialGradient>
			<path style="fill:url(#SVGID_00000173128583383489738590000010572563977968633750_);" d="M410,134
				c-0.28,0.34-0.54,0.68-0.83,1.02c-10.38,12.17-24.31,18.87-39.21,18.87c-14.9,0-28.83-6.7-39.21-18.87
				c-0.28-0.33-0.55-0.68-0.83-1.02c-27.32,12.48-46.43,40.1-46.43,71.97v20.53c0,5.79,4.69,10.48,10.48,10.48h151.98
				c5.79,0,10.48-4.69,10.48-10.48v-20.53C456.43,174.11,437.33,146.49,410,134z"/>
			
				<radialGradient id="SVGID_00000124867703019256962220000003281777779299064205_" cx="345.3304" cy="59.8029" r="63.6529" gradientUnits="userSpaceOnUse">
				<stop  offset="0" style="stop-color:#E92F25"/>
				<stop  offset="0.0897" style="stop-color:#DE2C25"/>
				<stop  offset="0.715" style="stop-color:#9C2327"/>
				<stop  offset="1" style="stop-color:#832127"/>
			</radialGradient>
			<path style="fill:url(#SVGID_00000124867703019256962220000003281777779299064205_);" d="M369.96,144.92
				c12.03,0,22.98-5.45,31.15-14.34c9.01-9.8,14.65-23.8,14.65-39.35c0-29.65-20.51-53.69-45.8-53.69c-25.3,0-45.8,24.04-45.8,53.69
				c0,15.55,5.64,29.54,14.65,39.35C346.99,139.47,357.93,144.92,369.96,144.92z"/>
		</g>
		<path class="st2" d="M155.08,129c-0.7-0.35-1.42-0.7-2.14-1.03c7.17-10.41,11.05-23.19,11.05-36.73
			c0-32.67-23.04-59.24-51.35-59.24c-28.32,0-51.35,26.58-51.35,59.24c0,13.55,3.88,26.33,11.05,36.73
			c-1.11,0.51-1.85,0.88-2.18,1.05c-30.1,13.82-49.53,44.01-49.53,76.95v20.53c0,8.84,7.19,16.03,16.03,16.03h151.98
			c8.84,0,16.03-7.19,16.03-16.03v-20.53C204.66,173.01,185.2,142.81,155.08,129z"/>
		<g>
			
				<radialGradient id="SVGID_00000098203628255176114070000012211619383825738417_" cx="153.3904" cy="143.9405" r="86.7663" gradientUnits="userSpaceOnUse">
				<stop  offset="0" style="stop-color:#FFED00"/>
				<stop  offset="1" style="stop-color:#F48E00"/>
			</radialGradient>
			<path style="fill:url(#SVGID_00000098203628255176114070000012211619383825738417_);" d="M152.68,134
				c-0.28,0.34-0.54,0.68-0.83,1.02c-10.38,12.17-24.31,18.87-39.21,18.87c-14.9,0-28.83-6.7-39.21-18.87
				c-0.28-0.33-0.55-0.68-0.83-1.02c-27.32,12.48-46.43,40.1-46.43,71.97v20.53c0,5.79,4.69,10.48,10.48,10.48h151.98
				c5.79,0,10.48-4.69,10.48-10.48v-20.53C199.11,174.11,180,146.49,152.68,134z"/>
			
				<radialGradient id="SVGID_00000169518838923998403030000000642306415692971683_" cx="137.8441" cy="51.7731" r="57.1808" gradientUnits="userSpaceOnUse">
				<stop  offset="0" style="stop-color:#FFED00"/>
				<stop  offset="1" style="stop-color:#F48E00"/>
			</radialGradient>
			<path style="fill:url(#SVGID_00000169518838923998403030000000642306415692971683_);" d="M112.64,144.92
				c12.03,0,22.98-5.45,31.15-14.34c9.01-9.8,14.65-23.8,14.65-39.35c0-29.65-20.51-53.69-45.8-53.69c-25.3,0-45.8,24.04-45.8,53.69
				c0,15.55,5.64,29.54,14.65,39.35C89.66,139.47,100.61,144.92,112.64,144.92z"/>
		</g>
		<path class="st2" d="M294.12,113.43c-0.82-0.41-1.66-0.82-2.5-1.21c8.38-12.17,12.92-27.11,12.92-42.95
			C304.55,31.07,277.61,0,244.5,0s-60.05,31.07-60.05,69.27c0,15.84,4.54,30.78,12.92,42.95c-1.3,0.6-2.17,1.03-2.55,1.23
			c-35.19,16.16-57.92,51.46-57.92,89.98v24.01c0,10.33,8.41,18.74,18.74,18.74h177.71c10.33,0,18.74-8.41,18.74-18.74v-24.01
			C352.1,164.89,329.35,129.57,294.12,113.43z"/>
		<g>
			
				<radialGradient id="SVGID_00000176035701329826049820000006273920140536512433_" cx="245.8354" cy="148.3823" r="92.1942" gradientUnits="userSpaceOnUse">
				<stop  offset="0" style="stop-color:#00A1E5"/>
				<stop  offset="1" style="stop-color:#2B2483"/>
			</radialGradient>
			<path style="fill:url(#SVGID_00000176035701329826049820000006273920140536512433_);" d="M291.32,119.28
				c-0.32,0.4-0.63,0.8-0.97,1.19c-12.14,14.23-28.43,22.07-45.85,22.07c-17.43,0-33.71-7.84-45.85-22.07
				c-0.33-0.39-0.64-0.79-0.97-1.19c-31.95,14.6-54.29,46.89-54.29,84.15v24.01c0,6.77,5.49,12.25,12.25,12.25h177.71
				c6.77,0,12.25-5.49,12.25-12.25v-24.01C345.61,166.17,323.26,133.88,291.32,119.28z"/>
			
				<radialGradient id="SVGID_00000028315865437649315450000005411786562485126017_" cx="245.0026" cy="13.4626" r="90.2258" gradientUnits="userSpaceOnUse">
				<stop  offset="0" style="stop-color:#34A6DC"/>
				<stop  offset="0.567" style="stop-color:#225FA6"/>
				<stop  offset="1" style="stop-color:#272C82"/>
			</radialGradient>
			<path style="fill:url(#SVGID_00000028315865437649315450000005411786562485126017_);" d="M244.5,132.05
				c14.07,0,26.87-6.37,36.43-16.77c10.53-11.46,17.13-27.83,17.13-46.01c0-34.67-23.98-62.78-53.56-62.78
				c-29.58,0-53.56,28.11-53.56,62.78c0,18.18,6.6,34.54,17.13,46.01C217.63,125.68,230.43,132.05,244.5,132.05z"/>
		</g>
		<g>
			<path class="st2" d="M904.49,112.86v28.06h-5.5V129l-7.88,11.46h-0.03l-7.9-11.46v11.92h-5.5v-28.06h0.31l13.11,18.09
				l13.09-18.09H904.49z"/>
			<path class="st2" d="M914.76,118.96v5.35h9.44v5.49h-9.44v5.66h11v5.47h-16.51v-27.38h16.51v5.42H914.76z M918.19,111.28h-3.89
				l3.18-5.55h4.75L918.19,111.28z"/>
			<path class="st2" d="M952.03,127.27c0,8.49-5.4,13.65-14.25,13.65h-7.96v-27.36l7.96-0.02
				C946.62,113.53,952.03,118.72,952.03,127.27z M946.47,127.25c0-5.13-3.29-8.25-8.71-8.25h-2.46v16.44h2.51
				C943.19,135.43,946.47,132.34,946.47,127.25z"/>
			<path class="st2" d="M955.6,113.54h5.5v27.38h-5.5V113.54z"/>
			<path class="st2" d="M982.49,137.1h-10.95l-1.75,3.82h-5.94l13.08-28.06h0.17l13.09,28.06h-5.96L982.49,137.1z M980.35,132.41
				l-3.33-7.32l-3.35,7.32H980.35z"/>
			<path class="st2" d="M1019.74,112.86v28.06h-5.5V129l-7.88,11.46h-0.03l-7.9-11.46v11.92h-5.5v-28.06h0.31l13.11,18.09
				l13.09-18.09H1019.74z"/>
			<path class="st2" d="M1041.14,137.1h-10.95l-1.75,3.82h-5.94l13.08-28.06h0.17l13.09,28.06h-5.96L1041.14,137.1z M1039,132.41
				l-3.33-7.32l-3.35,7.32H1039z"/>
			<path class="st2" d="M1065.5,118.99h-6.73v21.93h-5.52v-21.93h-6.74v-5.45h18.99V118.99z"/>
			<path class="st2" d="M1068.6,113.54h5.5v27.38h-5.5V113.54z"/>
			<path class="st2" d="M1102.84,136.33c0.88,0.25,1.87,0.44,3.01,0.51l-0.44,5.37c-2.99-0.19-5.21-1.1-7.01-2.34
				c-1.95,1.02-4.16,1.58-6.5,1.58c-7.81,0-14.21-6.39-14.21-14.18c0-7.86,6.4-14.28,14.23-14.28s14.25,6.42,14.25,14.28
				C1106.15,130.7,1104.91,133.87,1102.84,136.33z M1091.88,135.88c0.66,0,1.33-0.07,1.94-0.22c-1.78-1.88-3.46-3.48-5.93-3.65
				l0.29-4.72c5.25,0.39,7.17,3.48,9.83,6.06c1.58-1.56,2.56-3.74,2.56-6.11c0-4.79-3.91-8.7-8.7-8.7c-4.77,0-8.66,3.91-8.66,8.7
				C1083.22,131.99,1087.11,135.88,1091.88,135.88z"/>
			<path class="st2" d="M1109.49,130.8v-17.25h5.54v17.24c0,2.99,2.36,5.16,5.01,5.16s5.04-2.19,5.04-5.16v-17.24h5.54v17.25
				c0,6.2-4.74,10.72-10.56,10.72S1109.49,137,1109.49,130.8z"/>
			<path class="st2" d="M1140.65,118.96v5.35h9.44v5.49h-9.44v5.66h11v5.47h-16.51v-27.38h16.51v5.42H1140.65z"/>
		</g>
	</g>
</g>
</svg>
